<?xml version="1.0" encoding="UTF-8"?>
<svg width="31px" height="32px" viewBox="0 0 31 32" version="1.1" xmlns="http://www.w3.org/2000/svg" xmlns:xlink="http://www.w3.org/1999/xlink">
    <!-- Generator: Sketch 51.3 (57544) - http://www.bohemiancoding.com/sketch -->
    <title>Filter_logo_F_white</title>
    <desc>Created with Sketch.</desc>
    <defs></defs>
    <g id="Page-1" stroke="none" stroke-width="1" fill="none" fill-rule="evenodd">
        <g id="Filter_logo_F_white" fill="#FFFFFF" fill-rule="nonzero">
            <path d="M30.3048708,3.10405644 C30.3048708,1.09112287 29.4411632,0 28.2582593,0 C27.3006705,0 26.5496204,0.80893592 26.5496204,1.80599647 C26.5496204,2.89711934 28.1456018,3.25455614 28.1456018,4.15755438 C28.1456018,5.02292769 27.7513005,5.75661376 26.4557391,5.75661376 C23.1135663,5.75661376 19.2081058,2.44562022 14.0258603,2.44562022 C9.53833604,2.44562022 5.44511309,6.20811287 5.44511309,10.1022928 C5.44511309,12.5102881 6.77822699,13.808348 8.65585219,13.808348 C9.85753233,13.808348 10.8151212,12.9617872 10.8151212,11.9082892 C10.8151212,9.44385655 7.7545921,10.8547913 7.7545921,8.01410935 C7.7545921,6.26455026 9.38812602,5.13580247 12.3735501,5.13580247 C13.1246002,5.13580247 13.8756503,5.28630218 14.6267003,5.49323927 L10.8714499,21.4462081 C9.1252585,28.8018812 7.43539581,30.0999412 5.93329565,30.0999412 C4.44997174,30.0999412 4.48752424,27.2404468 2.14049273,27.2404468 C0.882483846,27.2404468 0,28.1058201 0,29.3474427 C0,30.984127 1.78374394,32 4.13077545,32 C9.36934977,32 13.9695315,27.2592593 15.5655129,20.5996473 L16.8610743,15.2569077 L19.5836309,15.2569077 C21.3673748,15.2569077 22.1372012,15.9529688 21.8367811,18.6243386 C21.7992286,18.7372134 22.0245437,18.8689006 22.3812924,18.8689006 C22.5878312,18.8689006 22.869475,18.8124633 22.9258038,18.6243386 C23.2825525,17.1193416 23.4139863,16.122281 23.7331826,14.7113463 C24.0711551,13.3004115 24.2776939,12.7736626 24.6344427,11.2686655 C24.6719952,11.1181658 24.3715752,11.0241035 24.0899314,11.0241035 C23.8458401,11.0241035 23.5829726,11.1181658 23.5454201,11.2686655 C22.7004887,13.6202234 21.7053474,14.0340976 19.8652747,14.0340976 L17.1427181,14.0340976 L18.8325808,6.79129924 C20.3722335,7.44973545 22.1372012,8.03292181 23.7895113,8.03292181 C27.413328,8.05173427 30.3048708,6.00117578 30.3048708,3.10405644" id="Shape"></path>
        </g>
    </g>
</svg>