<?xml version="1.0" encoding="UTF-8"?>
<svg width="10px" height="10px" viewBox="0 0 10 10" version="1.1" xmlns="http://www.w3.org/2000/svg" xmlns:xlink="http://www.w3.org/1999/xlink">
    <!-- Generator: Sketch 52 (66869) - http://www.bohemiancoding.com/sketch -->
    <title>Group 7</title>
    <desc>Created with Sketch.</desc>
    <g id="Symbols" stroke="none" stroke-width="1" fill="none" fill-rule="evenodd">
        <g id="Comments/overlay" transform="translate(-348.000000, -17.000000)" fill="#A89898" fill-rule="nonzero">
            <g id="Comments">
                <g id="Group-13">
                    <g id="Group-7" transform="translate(347.000000, 16.000000)">
                        <path d="M6,-0.75 L6,-0.75 C6.41421356,-0.75 6.75,-0.414213562 6.75,-2.22044605e-16 L6.75,12 C6.75,12.4142136 6.41421356,12.75 6,12.75 L6,12.75 C5.58578644,12.75 5.25,12.4142136 5.25,12 L5.25,1.11022302e-16 C5.25,-0.414213562 5.58578644,-0.75 6,-0.75 Z" id="Rectangle-17" transform="translate(6.000000, 6.000000) rotate(45.000000) translate(-6.000000, -6.000000) "></path>
                        <path d="M6,-0.75 L6,-0.75 C6.41421356,-0.75 6.75,-0.414213562 6.75,-2.22044605e-16 L6.75,12 C6.75,12.4142136 6.41421356,12.75 6,12.75 L6,12.75 C5.58578644,12.75 5.25,12.4142136 5.25,12 L5.25,1.11022302e-16 C5.25,-0.414213562 5.58578644,-0.75 6,-0.75 Z" id="Rectangle-17-Copy" transform="translate(6.000000, 6.000000) scale(-1, 1) rotate(45.000000) translate(-6.000000, -6.000000) "></path>
                    </g>
                </g>
            </g>
        </g>
    </g>
</svg>