<svg xmlns="http://www.w3.org/2000/svg" xmlns:xlink="http://www.w3.org/1999/xlink" viewBox="0 0 63.18 78.74"><defs><style>.cls-1{fill:none;}.cls-2{fill:#202020;}.cls-3{clip-path:url(#clip-path);}.cls-4{clip-path:url(#clip-path-2);}.cls-5{clip-path:url(#clip-path-3);}.cls-6{clip-path:url(#clip-path-5);}</style><clipPath id="clip-path" transform="translate(-565.7 -291.26)"><path class="cls-1" d="M603.59,307.7,594,301.38a.75.75,0,0,0-1.17.75v12.41a.76.76,0,0,0,1.17.64l9.58-6.28a.78.78,0,0,0,0-1.2Z"/></clipPath><clipPath id="clip-path-2" transform="translate(-565.7 -291.26)"><rect class="cls-1" width="785" height="579.26"/></clipPath><clipPath id="clip-path-3" transform="translate(-565.7 -291.26)"><polygon class="cls-1" points="589.38 350 586.64 350 586.64 329.69 583.63 331.91 583.63 329.02 586.6 326.83 589.34 326.83 589.38 350"/></clipPath><clipPath id="clip-path-5" transform="translate(-565.7 -291.26)"><path class="cls-1" d="M608.14,333.38a3.76,3.76,0,0,0-7.52,0v10.11a3.76,3.76,0,0,0,7.52,0Zm2.71,10.3a6.45,6.45,0,1,1-12.9.08V333.15a6.47,6.47,0,1,1,12.9,0Z"/></clipPath></defs><title>icon_10forward</title><g id="Layer_2" data-name="Layer 2"><g id="Ljudpelare"><path class="cls-2" d="M597.33,370a31.58,31.58,0,1,1-.09-63.16h0a1.5,1.5,0,1,1,0,3,28.56,28.56,0,1,0,12,2.6,1.5,1.5,0,1,1,1.25-2.72A31.58,31.58,0,0,1,597.33,370Z" transform="translate(-565.7 -291.26)"/><g class="cls-3"><g class="cls-4"><rect class="cls-2" x="17.14" width="31.02" height="34.03"/></g></g><g class="cls-5"><g class="cls-4"><rect class="cls-2" x="7.94" y="25.59" width="25.73" height="43.14"/></g></g><g class="cls-6"><g class="cls-4"><rect class="cls-2" x="22.25" y="24.94" width="32.91" height="44.05"/></g></g></g></g></svg>