<svg xmlns="http://www.w3.org/2000/svg" viewBox="0 0 17 18.35"><defs><style>.cls-1{fill:none;stroke:#000;stroke-linecap:round;stroke-miterlimit:10;}</style></defs><title>Back</title><g id="Layer_2" data-name="Layer 2"><g id="Layer_1-2" data-name="Layer 1"><path class="cls-1" d="M5.15,2.58A8,8,0,1,0,8.5,1.85"/><path d="M6.86,1.68,9.41,0A.2.2,0,0,1,9.72.2V3.5a.2.2,0,0,1-.31.17L6.86,2A.21.21,0,0,1,6.86,1.68Z"/><path d="M6.41,12.93H5.68V7.53l-.8.59V7.35l.79-.58h.73Z"/><path d="M12.12,11.25A1.66,1.66,0,0,1,10.4,13a1.66,1.66,0,0,1-1.71-1.73V8.45a1.72,1.72,0,1,1,3.43,0ZM11.4,8.51a1,1,0,1,0-2,0V11.2a1,1,0,1,0,2,0Z"/></g></g></svg>
