<?xml version="1.0" encoding="UTF-8"?>
<svg width="16px" height="16px" viewBox="0 0 16 16" version="1.1" xmlns="http://www.w3.org/2000/svg" xmlns:xlink="http://www.w3.org/1999/xlink">
    <!-- Generator: Sketch 51.3 (57544) - http://www.bohemiancoding.com/sketch -->
    <title>button_extra_sound_white</title>
    <desc>Created with Sketch.</desc>
    <defs></defs>
    <g id="Page-1" stroke="none" stroke-width="1" fill="none" fill-rule="evenodd">
        <g id="extra/button">
            <g id="Group-11-Copy" stroke-width="1" fill-rule="evenodd" fill="#DAB0A0">
                <rect id="Rectangle-9" fill-rule="nonzero" x="0" y="0" width="16" height="16" rx="2"></rect>
            </g>
            <g id="extra/button/icon/sound_white" transform="translate(1.300000, 1.000000)">
                <path d="M11.1666667,2 C11.6129141,3.66810371 11.8360378,5.33477038 11.8360378,7 C11.8360378,8.66522962 11.6129141,10.3318963 11.1666667,12" id="Line-2" stroke="#FCFCF9" stroke-width="1" stroke-linecap="round"></path>
                <path d="M3.5,5 L7.68765248,1.64987802 C7.90328344,1.47737324 8.21792963,1.51233393 8.3904344,1.7279649 C8.46135962,1.81662142 8.5,1.92677668 8.5,2.04031242 L8.5,11.9596876 C8.5,12.23583 8.27614237,12.4596876 8,12.4596876 C7.88646425,12.4596876 7.776309,12.4210472 7.68765248,12.350122 L3.5,9 L3.5,5 Z" id="Rectangle-3" fill="#FCFCF9" fill-rule="nonzero"></path>
                <rect id="Rectangle-4" fill="#FCFCF9" fill-rule="nonzero" x="0.5" y="5" width="5" height="4" rx="1"></rect>
            </g>
        </g>
    </g>
</svg>