<svg xmlns="http://www.w3.org/2000/svg" xmlns:xlink="http://www.w3.org/1999/xlink" viewBox="0 0 63.18 78.74"><defs><style>.cls-1{fill:none;}.cls-2{fill:#202020;}.cls-3{clip-path:url(#clip-path);}.cls-4{clip-path:url(#clip-path-2);}.cls-5{clip-path:url(#clip-path-3);}.cls-6{clip-path:url(#clip-path-5);}</style><clipPath id="clip-path" transform="translate(-158.12 -290.6)"><path class="cls-1" d="M183.59,307l9.59-6.32a.76.76,0,0,1,.83,0,.77.77,0,0,1,.34.77v12.4a.79.79,0,0,1-.39.68.75.75,0,0,1-.78,0l-9.59-6.28a.78.78,0,0,1,0-1.2Z"/></clipPath><clipPath id="clip-path-2" transform="translate(-158.12 -290.6)"><rect class="cls-1" width="785" height="579.26"/></clipPath><clipPath id="clip-path-3" transform="translate(-158.12 -290.6)"><polygon class="cls-1" points="181.9 349.33 179.16 349.33 179.16 329.03 176.15 331.25 176.15 328.35 179.12 326.17 181.86 326.17 181.9 349.33"/></clipPath><clipPath id="clip-path-5" transform="translate(-158.12 -290.6)"><path class="cls-1" d="M200.66,332.71a3.76,3.76,0,1,0-7.52,0v10.12a3.76,3.76,0,1,0,7.52,0Zm2.71,10.3a6.45,6.45,0,1,1-12.9.08v-10.6a6.47,6.47,0,1,1,12.9,0Z"/></clipPath></defs><title>icon_10back</title><g id="Layer_2" data-name="Layer 2"><g id="Ljudpelare"><path class="cls-2" d="M189.67,369.34a31.59,31.59,0,0,1-13.13-60.29,1.5,1.5,0,1,1,1.25,2.73,28.57,28.57,0,1,0,12-2.61,1.5,1.5,0,0,1,0-3h0a31.58,31.58,0,0,1,6.68,62.44A32.09,32.09,0,0,1,189.67,369.34Z" transform="translate(-158.12 -290.6)"/><g class="cls-3"><g class="cls-4"><rect class="cls-2" x="15.2" width="31.02" height="34.03"/></g></g><g class="cls-5"><g class="cls-4"><rect class="cls-2" x="8.04" y="25.59" width="25.73" height="43.14"/></g></g><g class="cls-6"><g class="cls-4"><rect class="cls-2" x="22.34" y="24.94" width="32.91" height="44.05"/></g></g></g></g></svg>